# xmcd
#
# Track frame offsets:
#	150
#	17048
#	32794
#	47090
#	57897
#	70936
#	88938
#	103598
#	120889
#	141747
#	161950
#	178746
#	205785
#
# Disc length: 2972 seconds
#
# Revision: 1
# Processed by: cddbd v1.5.2PL0 Copyright (c) Steve Scherf et al.
# Submitted via: audiograbber 1.83.01
#
DISCID=bb0b9a0d
DTITLE=The Gospel People - Gospel History
DYEAR=1900
DGENRE=Gospel
TTITLE0=Welcome to Africa
TTITLE1=Kum Ba Yah
TTITLE2=Summertime
TTITLE3=Havin a Good Time
TTITLE4=Amazing Grace
TTITLE5=O Happy Day
TTITLE6=Forever, You Are Holy
TTITLE7=What a Wonderful World
TTITLE8=The Storm is Over Now
TTITLE9=Man in the Mirror
TTITLE10=He Reigns
TTITLE11=Earth Song
TTITLE12=Riverside
EXTD=
EXTT0=
EXTT1=
EXTT2=
EXTT3=
EXTT4=
EXTT5=
EXTT6=
EXTT7=
EXTT8=
EXTT9=
EXTT10=
EXTT11=
EXTT12=
PLAYORDER=
